<?xml version="1.0" encoding="UTF-8" standalone="no"?>
<!DOCTYPE svg PUBLIC "-//W3C//DTD SVG 1.1//EN" "http://www.w3.org/Graphics/SVG/1.1/DTD/svg11.dtd">
<svg width="100%" height="100%" viewBox="0 0 20 20" version="1.1" xmlns="http://www.w3.org/2000/svg" xmlns:xlink="http://www.w3.org/1999/xlink" xml:space="preserve" style="fill-rule:evenodd;clip-rule:evenodd;stroke-linecap:round;stroke-linejoin:round;stroke-miterlimit:1.5;">
    <g transform="matrix(1.01694,0,0,1,-0.0169341,0)">
        <path d="M10,1C10,1 0.957,0.715 1,10C1.041,18.877 9.41,19.006 10,19C12.342,18.977 59.924,19.172 60,19C60.076,18.828 60.036,1.141 60,1C59.964,0.859 10,1 10,1Z" style="fill:rgb(102,102,102);stroke:rgb(77,77,77);stroke-width:0.99px;"/>
    </g>
    <g transform="matrix(0.966126,0,0,0.669133,3.03387,3.31009)">
        <path d="M10,1C10,1 0.957,0.715 1,10C1.041,18.877 9.41,19.006 10,19C12.342,18.977 59.924,19.172 60,19C60.076,18.828 60.036,1.141 60,1C59.964,0.859 10,1 10,1Z" style="fill:rgb(46,158,201);stroke:rgb(77,77,77);stroke-width:1.2px;"/>
    </g>
    <g transform="matrix(0.966126,0,0,0.669133,3.03387,3.31009)">
        <path d="M10,1C10,1 0.957,0.715 1,10C1.041,18.877 9.41,19.006 10,19C12.342,18.977 59.924,19.172 60,19C60.076,18.828 60.036,1.141 60,1C59.964,0.859 10,1 10,1Z" style="fill:rgb(247,247,187);stroke:rgb(77,77,77);stroke-width:1.2px;"/>
    </g>
</svg>
