<?xml version="1.0" encoding="UTF-8" standalone="no"?>
<!DOCTYPE svg PUBLIC "-//W3C//DTD SVG 1.1//EN" "http://www.w3.org/Graphics/SVG/1.1/DTD/svg11.dtd">
<svg width="100%" height="100%" viewBox="0 0 4728 4728" version="1.1" xmlns="http://www.w3.org/2000/svg" xmlns:xlink="http://www.w3.org/1999/xlink" xml:space="preserve" style="fill-rule:evenodd;clip-rule:evenodd;stroke-linejoin:round;stroke-miterlimit:1.41421;">
    <g transform="matrix(1.33333,0,0,1.33333,0,0)">
        <g transform="matrix(4.16667,0,0,4.16667,0,0)">
            <path d="M425.192,569.45C345.989,569.45 281.549,505.011 281.549,425.798C281.549,346.595 345.989,282.155 425.192,282.155C504.405,282.155 568.844,346.595 568.844,425.798C568.844,505.011 504.405,569.45 425.192,569.45ZM425.201,268.907C338.547,268.907 268.301,339.152 268.301,425.808C268.301,512.453 338.547,582.699 425.201,582.699C511.847,582.699 582.093,512.453 582.093,425.808C582.093,339.152 511.847,268.907 425.201,268.907Z" style="fill:rgb(130,116,115);fill-rule:nonzero;"/>
            <g transform="matrix(1,0,0,1,0,0.24)">
                <path d="M453.667,347.051C453.667,361.549 441.914,373.301 427.417,373.301C412.919,373.301 401.167,361.549 401.167,347.051C401.167,332.554 412.919,320.801 427.417,320.801C441.914,320.801 453.667,332.554 453.667,347.051Z" style="fill:rgb(130,116,115);fill-rule:nonzero;"/>
            </g>
            <path d="M466.473,516.562L466.473,530.805L388.361,530.805L388.361,516.562L401.171,516.562L401.171,400.65L383.921,400.65L383.921,392.197L453.671,392.197L453.671,516.562L466.473,516.562Z" style="fill:rgb(130,116,115);fill-rule:nonzero;"/>
        </g>
    </g>
</svg>
